# xmcd CD database file
#
# Track frame offsets:
#	150
#	15170
#	49130
#	68414
#	98534
#	123495
#	152588
#	170786
#	193383
#	225764
#
# Disc length: 3147 seconds
#
# Revision: 0
# Processed by: cddbd v1.5.2PL0 Copyright (c) Steve Scherf et al.
# Submitted via: CDex 1.70beta2
#
DISCID=700c490a
DTITLE=Michael Vlatkovich and William Roper - Chobraty
DYEAR=2005
DGENRE=Jazz
TTITLE0=Blue Fragments
TTITLE1=If Here Were There, There Would Be Here
TTITLE2=South For Winter
TTITLE3=Every Second Of Every Minute Of Every Hour
TTITLE4=Poem On A Banner
TTITLE5=Blue But Not Too Blue
TTITLE6=Chobraty
TTITLE7=Miss O
TTITLE8=Spoon The Spoon
TTITLE9=Just Another Picture On The Piano
EXTD=YEAR: 2005
EXTT0=
EXTT1=
EXTT2=
EXTT3=
EXTT4=
EXTT5=
EXTT6=
EXTT7=
EXTT8=
EXTT9=
PLAYORDER=
